<?xml version="1.0" encoding="UTF-8"?>
<svg id="Ebene_1" data-name="Ebene 1" xmlns="http://www.w3.org/2000/svg" viewBox="0 0 751.92 351.05">
  <defs>
    <style>
      .cls-1 {
        fill: #0e767d;
      }

      .cls-2 {
        fill: #ffd166;
      }
    </style>
  </defs>
  <g id="Wort">
    <g id="wortmark">
      <path class="cls-2" d="M380.27,143.98c0,.61-.15.91-.46.91-3.55,0-6.38-.05-8.51-.15l-11.7-.15-13.67.15c-1.82.1-4.3.15-7.44.15-.3,0-.46-.3-.46-.91s.15-.91.46-.91c3.75,0,6.48-.25,8.2-.76s2.89-1.47,3.49-2.89c.61-1.42.91-3.7.91-6.84v-34.94h-49.07v34.94c0,3.04.3,5.29.91,6.76.61,1.47,1.77,2.46,3.49,2.96,1.72.51,4.46.76,8.2.76.2,0,.3.3.3.91s-.1.91-.3.91c-3.55,0-6.38-.05-8.51-.15l-13.22-.15-11.39.15c-2.03.1-4.81.15-8.35.15-.2,0-.3-.3-.3-.91s.1-.91.3-.91c3.54,0,6.13-.25,7.75-.76s2.73-1.49,3.34-2.96.91-3.72.91-6.76V62.25c0-3.04-.3-5.26-.91-6.68-.61-1.42-1.7-2.4-3.27-2.96-1.57-.56-4.08-.84-7.52-.84-.3,0-.46-.3-.46-.91s.15-.91.46-.91l8.2.15c4.66.2,8.4.3,11.24.3,3.85,0,8.3-.1,13.37-.3l8.35-.15c.2,0,.3.3.3.91s-.1.91-.3.91c-3.65,0-6.33.3-8.05.91-1.72.61-2.91,1.65-3.57,3.11-.66,1.47-.99,3.72-.99,6.76v30.84h49.07v-30.84c0-3.04-.3-5.29-.91-6.76-.61-1.47-1.77-2.51-3.49-3.11-1.72-.61-4.46-.91-8.2-.91-.3,0-.46-.3-.46-.91s.15-.91.46-.91l7.44.15c5.06.2,9.62.3,13.67.3,2.73,0,6.63-.1,11.7-.3l8.51-.15c.3,0,.46.3.46.91s-.15.91-.46.91c-3.44,0-6,.28-7.67.84s-2.79,1.55-3.34,2.96c-.56,1.42-.84,3.65-.84,6.68v70.33c0,3.04.28,5.29.84,6.76s1.64,2.46,3.27,2.96c1.62.51,4.2.76,7.75.76.3,0,.46.3.46.91h.01Z"/>
      <path class="cls-2" d="M482.62,142.96c0,.6-.23.9-.68.9-1.8,0-4.59-.1-8.37-.3-3.96-.2-6.8-.3-8.51-.3-2.25,0-5,.1-8.24.3-3.06.2-5.49.3-7.29.3-.36,0-.54-.3-.54-.9s.18-.9.54-.9c2.34,0,4.03-.27,5.06-.83,1.03-.55,1.55-1.52,1.55-2.93,0-1.7-.9-4.55-2.7-8.55l-9.18-20.25h-33.22l-5.27,13.05c-1.17,2.9-1.76,5.6-1.76,8.1,0,3.6,1.15,6.4,3.44,8.4,2.3,2,5.38,3,9.25,3,.45,0,.68.3.68.9s-.23.9-.68.9c-1.62,0-3.96-.1-7.02-.3-3.42-.2-6.39-.3-8.91-.3s-5.36.1-8.78.3c-3.06.2-5.54.3-7.43.3-.36,0-.54-.3-.54-.9s.18-.9.54-.9c2.52,0,4.64-.57,6.35-1.73,1.71-1.15,3.42-3.2,5.13-6.15,1.71-2.95,3.73-7.33,6.08-13.13l29.3-71.56c.18-.3.58-.45,1.21-.45.72,0,1.12.15,1.22.45l33.76,73.81c3.15,7.1,5.76,12,7.83,14.7s4.23,4.05,6.48,4.05c.45,0,.68.3.68.9l.02.02ZM416,105.3h29.26l-15.44-34.21-13.83,34.21h.01Z"/>
      <path class="cls-2" d="M552.56,71.07c0,.2-.26.35-.77.45-.52.1-.82,0-.91-.3-1.5-5.83-4.03-10.16-7.59-12.98s-8.24-4.23-14.05-4.23h-4.21c-2.81,0-4.87.66-6.18,1.96-1.31,1.31-1.97,3.32-1.97,6.04v32.6h10.11c5.43,0,9.58-1.03,12.43-3.09,2.86-2.06,4.28-4.91,4.28-8.53,0-.2.28-.3.84-.3s.84.1.84.3l-.14,13.73c0,3.22.05,5.64.14,7.24l.14,8c0,.3-.28.45-.84.45s-.84-.15-.84-.45c0-4.02-1.48-7.22-4.43-9.58s-7.14-3.55-12.57-3.55h-9.97v32.3c0,3.12.37,5.43,1.12,6.94s2.15,2.57,4.21,3.17,5.29.91,9.69.91c.19,0,.28.3.28.91s-.09.91-.28.91c-3.84,0-6.84-.05-8.99-.15l-14.33-.15-10.54.15c-1.87.1-4.45.15-7.73.15-.28,0-.42-.3-.42-.91s.14-.91.42-.91c3.28,0,5.67-.25,7.16-.75,1.5-.5,2.5-1.48,3.02-2.94.51-1.46.77-3.7.77-6.72V61.86c0-3.02-.24-5.23-.7-6.64-.47-1.41-1.4-2.39-2.81-2.94s-3.56-.83-6.46-.83c-.28,0-.42-.3-.42-.91s.14-.91.42-.91h59.56c.93,0,1.4.45,1.4,1.36l.28,20.07h.04Z"/>
      <path class="cls-2" d="M633.07,119.76c.3,0,.57.07.81.22.25.15.37.27.37.37-.99,7.7-1.48,14.71-1.48,21.03,0,.79-.15,1.36-.45,1.7-.3.35-.89.52-1.78.52h-65.46c-.3,0-.45-.3-.45-.89s.15-.89.45-.89c3.16,0,5.45-.25,6.89-.74,1.43-.49,2.39-1.46,2.89-2.89.49-1.43.74-3.63.74-6.59V63.02c0-2.96-.25-5.13-.74-6.52-.5-1.38-1.48-2.34-2.96-2.89-1.48-.54-3.75-.81-6.81-.81-.3,0-.45-.3-.45-.89s.15-.89.45-.89h62.8c.99,0,1.48.44,1.48,1.33l.3,19.7c0,.2-.27.35-.81.44-.54.1-.87,0-.96-.3-1.58-5.73-4.25-9.97-8-12.74-3.75-2.76-8.69-4.15-14.81-4.15h-4.44c-2.96,0-5.14.64-6.52,1.93-1.38,1.28-2.07,3.26-2.07,5.92v30.21h12.29c5.73,0,10.12-.99,13.18-2.96s4.59-4.74,4.59-8.29c0-.3.27-.44.81-.44s.81.15.81.44l-.15,13.33.15,7.11c.2,3.36.3,6.02.3,8,0,.2-.3.3-.89.3s-.89-.1-.89-.3c0-4.05-1.55-7.23-4.66-9.55-3.11-2.32-7.58-3.48-13.4-3.48h-12.15v33.47c0,2.86.54,4.99,1.63,6.37s2.81,2.07,5.18,2.07h4.89c7.7,0,13.87-1.58,18.51-4.74s8.05-8.05,10.22-14.66c0-.2.2-.3.59-.3v.03Z"/>
      <path class="cls-2" d="M751.92,51.14c0,.61-.1.92-.3.92-4.07,0-7.28,1.6-9.62,4.81-2.34,3.21-3.51,7.51-3.51,12.9v78.15c0,.3-.23.51-.69.61-.46.1-.79.05-.99-.15l-71.59-81.51v59.38c0,5.4,1.12,9.67,3.36,12.82,2.24,3.16,5.34,4.73,9.31,4.73.2,0,.3.31.3.92s-.1.92-.3.92c-2.85,0-5.04-.05-6.56-.15l-8.24-.15-9.46.15c-1.73.1-4.22.15-7.48.15-.3,0-.46-.31-.46-.92s.15-.92.46-.92c4.48,0,8.01-1.58,10.61-4.73,2.59-3.15,3.89-7.43,3.89-12.82V61.68c-3.36-3.66-6.23-6.18-8.62-7.56-2.39-1.37-4.86-2.06-7.4-2.06-.2,0-.31-.31-.31-.92s.1-.92.31-.92l6.41.15c1.32.1,3.26.15,5.8.15l11.6-.15c1.42-.1,3.15-.15,5.19-.15.81,0,1.42.21,1.83.61.41.41,1.12,1.27,2.14,2.59,1.73,2.34,2.95,3.92,3.66,4.73l52.81,60.9v-49.3c0-5.5-1.12-9.82-3.36-12.97s-5.34-4.73-9.31-4.73c-.2,0-.3-.31-.3-.92s.1-.92.3-.92l6.56.15c3.26.21,6,.31,8.24.31,2.03,0,4.88-.1,8.55-.31l6.87-.15c.2,0,.3.31.3.92h0Z"/>
      <path class="cls-2" d="M318.91,268.08c-1.78-.11-3.98-.21-6.59-.32-2.62-.1-5.53-.16-8.76-.16l-12.35.16c-2.23.11-5.23.16-9.01.16-.22,0-.33-.32-.33-.95s.11-.95.33-.95c3.56,0,6.17-.26,7.84-.79,1.67-.53,2.81-1.56,3.42-3.09.61-1.53.92-3.89.92-7.06v-73.46c0-3.17-.31-5.5-.92-6.98-.61-1.48-1.73-2.51-3.34-3.09s-4.14-.87-7.59-.87c-.33,0-.5-.32-.5-.95s.17-.95.5-.95l8.84.16c5.11.21,9.18.32,12.18.32,4.56,0,9.23-.16,14.01-.48,5.78-.21,9.68-.32,11.68-.32,11.23,0,21.21,2.12,29.95,6.35,8.73,4.23,15.49,10,20.27,17.29,4.78,7.3,7.17,15.5,7.17,24.59,0,10.26-2.48,19.33-7.42,27.21-4.95,7.88-11.62,13.96-20.02,18.25-8.4,4.28-17.6,6.43-27.61,6.43-3.56,0-7.79-.16-12.68-.48v-.02ZM348.77,259.75c5.45-3.44,9.7-8.54,12.76-15.31s4.59-14.86,4.59-24.27-1.45-17.16-4.34-24.51-7.01-13.14-12.34-17.37c-5.34-4.23-11.51-6.35-18.52-6.35s-11.62.63-14.18,1.9-3.84,3.97-3.84,8.09v71.39c0,4.23,1.17,7.22,3.5,8.96,2.34,1.75,6.84,2.62,13.51,2.62,7.12,0,13.4-1.72,18.85-5.16h0Z"/>
      <path class="cls-2" d="M487.22,241.35c.32,0,.62.08.88.23.27.16.4.29.4.39-1.07,8.1-1.61,15.48-1.61,22.12,0,.83-.16,1.43-.48,1.79-.32.37-.96.55-1.93.55h-71.02c-.32,0-.48-.31-.48-.93s.16-.94.48-.94c3.43,0,5.92-.26,7.47-.78s2.6-1.53,3.13-3.04c.53-1.5.8-3.82.8-6.93v-72.13c0-3.12-.27-5.4-.8-6.85-.54-1.45-1.61-2.47-3.21-3.04-1.61-.57-4.07-.86-7.39-.86-.32,0-.48-.31-.48-.94s.16-.93.48-.93h68.13c1.07,0,1.61.47,1.61,1.4l.32,20.72c0,.21-.3.37-.88.47-.59.11-.94,0-1.04-.31-1.71-6.02-4.61-10.49-8.68-13.4s-9.43-4.36-16.07-4.36h-4.82c-3.21,0-5.57.68-7.07,2.02-1.5,1.35-2.25,3.43-2.25,6.23v31.78h13.34c6.21,0,10.98-1.04,14.3-3.12s4.98-4.99,4.98-8.73c0-.31.29-.47.88-.47s.88.16.88.47l-.16,14.02.16,7.48c.21,3.53.32,6.34.32,8.41,0,.21-.32.31-.96.31s-.96-.1-.96-.31c0-4.26-1.69-7.61-5.06-10.05s-8.22-3.66-14.54-3.66h-13.18v35.21c0,3.01.59,5.25,1.77,6.7,1.18,1.46,3.05,2.18,5.62,2.18h5.3c8.36,0,15.05-1.66,20.08-4.99,5.03-3.32,8.73-8.46,11.09-15.42,0-.21.21-.31.64-.31v.02Z"/>
      <path class="cls-2" d="M593.97,167.41c5.2.8,9.35,1.85,12.46,3.14.96.32,1.58.72,1.85,1.21.27.48.45,1.31.56,2.49l2.09,22.35c0,.32-.27.54-.8.64-.54.11-.91-.05-1.13-.48-3-8.79-7.29-15.52-12.87-20.18s-12.28-7-20.1-7c-7.29,0-13.8,1.96-19.54,5.87s-10.24,9.52-13.51,16.81-4.9,15.81-4.9,25.57,1.69,18.52,5.07,25.97,8.04,13.19,13.99,17.21,12.79,6.03,20.5,6.03,13.61-2.01,18.65-6.03c5.04-4.02,9.81-10.64,14.31-19.86.11-.32.43-.43.96-.32s.8.32.8.64l-2.41,19.94c-.22,1.29-.43,2.12-.64,2.49-.22.38-.8.78-1.77,1.21-9.86,3.54-19.84,5.31-29.91,5.31-11.47,0-21.74-2.17-30.8-6.51s-16.16-10.42-21.31-18.25c-5.15-7.82-7.72-16.72-7.72-26.7s2.65-19.27,7.96-27.26c5.31-7.98,12.6-14.23,21.87-18.73s19.59-6.75,30.96-6.75c5.04,0,10.16.4,15.36,1.21l.02-.02Z"/>
      <path class="cls-2" d="M744.23,268.38c0,.63-.16.95-.47.95h-17.65c-1.68,0-3.1.05-4.25.16-1.16.1-2.1.16-2.84.16-1.68,0-3.13-.39-4.33-1.18-1.21-.79-2.68-2.23-4.41-4.33-1.73-2.1-4.81-6.15-9.22-12.13-.53-.73-1.13-1.55-1.81-2.44-.69-.89-1.45-1.92-2.29-3.07l-20.64-27.74-3.47,3.47v34.36c0,3.26.26,5.62.79,7.09.52,1.47,1.55,2.47,3.07,2.99,1.52.53,3.96.79,7.33.79.42,0,.63.32.63.95s-.21.95-.63.95c-3.47,0-6.2-.05-8.19-.16l-11.82-.16-11.66.16c-2.1.11-4.94.16-8.51.16-.21,0-.32-.31-.32-.95s.1-.95.32-.95c3.36,0,5.83-.26,7.41-.79,1.58-.52,2.65-1.55,3.23-3.07.58-1.52.87-3.86.87-7.01v-72.97c0-3.15-.29-5.46-.87-6.93s-1.63-2.5-3.15-3.07c-1.52-.58-3.92-.87-7.17-.87-.31,0-.47-.32-.47-.95s.16-.95.47-.95l8.35.16c4.83.21,8.67.31,11.5.31,3.15,0,7.14-.1,11.98-.31l8.04-.16c.32,0,.47.31.47.95s-.16.95-.47.95c-3.26,0-5.65.31-7.17.95-1.52.63-2.58,1.71-3.15,3.23-.58,1.52-.87,3.86-.87,7.01v33.41l29.63-30.26c3.05-3.05,4.57-5.83,4.57-8.35,0-1.89-.84-3.36-2.52-4.41-1.68-1.05-4.05-1.58-7.09-1.58-.31,0-.47-.32-.47-.95s.16-.95.47-.95l7.41.16c4.62.21,8.93.31,12.92.31,4.31,0,8.77-.1,13.4-.31l7.09-.16c.31,0,.47.31.47.95s-.16.95-.47.95c-4.83,0-10.14,1.39-15.92,4.18-5.78,2.79-11.03,6.49-15.76,11.11l-17.81,18.12,23.32,31.52c6.83,9.77,11.95,16.68,15.37,20.72,3.41,4.05,6.17,6.57,8.27,7.57,2.1,1,4.78,1.5,8.04,1.5.32,0,.47.32.47.95l-.02-.04Z"/>
    </g>
  </g>
  <g id="Bild">
    <g id="shape-2">
      <path id="teil" class="cls-2" d="M110.47,277.07l-11.57,34.11-98.9-.86L.03,113.14C7.13,40.67,76.64-13.18,149.05,2.83c47.28,10.45,84.98,50.58,91.97,98.62,1.23,8.47,2.27,23.6,1.23,31.9-.32,2.54-1.69,1.68-3.42,2.74-11.91,7.29-13.89,21.9-16.8,34.5-9.06-3.44-16.87,1.71-23.54,7.28V58.77c0-5.67-8.82-14.37-14.85-14.3H57.5c-8.38.84-14.56,7.78-15.44,15.96l.02,200.67c.96,4.92,3.37,10.23,7.67,13.07.8.53,6.09,2.9,6.63,2.9h54.1-.01Z"/>
      <path id="teil-2" class="cls-2" d="M165.41,219.35s-1.14,1.08-1.39,1.67c-15.47,15.23-34.8,26.74-46.67,45.42h-56.51c-3.54-.39-6-2.33-7.3-5.6l-.29-198.17c.63-5.36,3.57-7.12,8.7-7.56h117.21c3.19.09,6.25,1.98,7.28,5.05l.24,133.66c-5.84,9.39-13.06,18.1-21.27,25.53Z"/>
      <path id="teil-3" class="cls-2" d="M149.15,351.05h-52.14c8.53-28.96,10.61-60.78,28.7-85.93,13.65-18.98,34.84-31.66,50.64-49.14,8.84-9.78,21.96-32.05,32.41-37.66,12.48-6.7,11.94,4.32,8.5,12.98-4.39,11.08-14.71,21.93-21.47,31.78-7.36,10.73-14.45,23.47-15.8,36.6l1.99-.52c6.91-8.5,11.49-18.42,17.27-27.57,7.91-12.53,19.05-23.2,24.33-37.33,3.64-9.74,4.17-19.84,6.57-29.86,1.88-7.82,4.71-20.04,13.45-22.44l.86.29c2.15,1.31,1.81,17.57,1.7,20.78-.94,27.9-5.45,69.4-20.75,93.03-22.24,34.34-70.95,49.73-76.26,94.98h0Z"/>
    </g>
    <path id="kreuz" class="cls-1" d="M164.03,194.22l-.95,2.64c4.32-3.38,7.07,3.72,1.59,2.81,1.99,4.41-6.53,4.39-4.06.07-5.91,1.18-3.51-5.93,1.2-2.87l-1.33-2.6,3.55-.06h0Z"/>
    <path id="A" class="cls-1" d="M169.81,205.91l.35.58c-.33.36-1.18.26-1.7.59-1.21.78-3.79,9.31-4.71,11.04-1.9.9-2.02,1.07-3.01-.55-1.05-1.72-3.96-9.89-5.22-10.41-.41-.17-.9-.14-1.34-.13l-.02-.87,6.56-.1c1.95-.03-1.44,1.23-1.47,1.35l1.09,2.98,5.38-.23.89-2.85c-.23-.63-1.43-.44-2.01-.44l-.02-.87,5.21-.08h.02ZM161.01,211.56c.91,1.52,1.17,3.6,2.45,4.89-.37-.83,1.9-4.72,1.58-4.95l-4.03.06Z"/>
    <path id="kreuz-2" class="cls-1" d="M63.84,85.04l1-2.62c-4.38,3.3-7-3.85-1.54-2.84-1.91-4.44,6.61-4.27,4.06,0,5.93-1.08,3.4,5.99-1.25,2.84l1.28,2.62h-3.55Z"/>
    <path id="A-2" class="cls-1" d="M58.28,73.25l-.34-.58c.34-.35,1.19-.23,1.71-.56,1.23-.76,3.96-9.24,4.91-10.95,1.91-.87,2.04-1.03,3,.61,1.02,1.74,3.78,9.96,5.03,10.5.4.18.9.16,1.34.15v.87l-6.56-.02c-1.95,0,1.47-1.21,1.49-1.32l-1.03-3-5.39.13-.94,2.84c.22.64,1.42.47,2,.48v.87h-5.21s-.01-.02-.01-.02ZM67.17,67.76c-.88-1.54-1.1-3.62-2.37-4.93.36.84-1.98,4.68-1.67,4.92h4.04Z"/>
    <path id="kreuz-3" class="cls-1" d="M102.98,185.07l8.8-26.67c-38.48,33.59-61.22-38.91-13.4-28.84-16.64-45.07,58.01-43.58,35.57-.1,51.99-11.08,29.62,60.75-11.02,28.92l11.15,26.62-31.1.08h0Z"/>
  </g>
</svg>