<svg width="337" height="337" viewBox="0 0 337 337" fill="none" xmlns="http://www.w3.org/2000/svg">
<path d="M190.6 68.4098C191.603 68.5926 191.3 68.3519 191.577 67.8392C193.596 64.1123 195.004 59.0123 197.112 55.1739C199.655 50.551 204.882 44.5148 210.162 49.2492C246.492 89.6658 289.915 129.904 315.782 178.51C335.696 215.935 317.238 245.697 323.09 283.893C325.14 297.272 331.155 306.259 335.238 318.394C339.005 329.584 337.293 335.968 324.59 336.801C289.748 339.093 246.052 321.372 224.299 293.492C207.795 272.338 199.466 245.987 185.325 223.313C178.368 212.159 166.7 202.65 172.618 188.17C176.459 178.773 185.373 174.582 195.176 175.884C207.157 177.476 225.13 202.851 233.046 211.963C238.959 218.775 248.886 229.951 258.807 225.123C271.985 218.712 261.474 192.116 256.968 182.371C246.039 158.739 227.889 136.997 211.698 116.788C209.546 114.105 207.21 111.515 204.887 108.978C204.279 109.286 204.895 110.177 205.027 110.619C210.954 130.296 219.842 150.063 226.468 169.58C227.889 174.15 223.428 179.388 218.839 178.688C215.499 178.18 209.586 171.382 206.387 168.979C185.562 153.344 157.253 171.386 158.921 197.011C159.757 209.828 174.932 231.213 181.431 243.303C185.483 250.846 191.559 261.091 194.49 268.856C196.267 273.564 195.607 276.083 191.027 278.143C184.295 281.174 175.658 283.296 168.486 286.064C154.081 291.628 140.111 298.395 125.587 303.674C109.057 309.679 87.2198 318.448 78.0636 296.773L1.39524 78.8862C-5.45982 52.9538 14.177 47.0826 33.4134 39.5396C63.5439 27.7214 94.6645 18.2703 125.27 7.78504C138.158 3.37159 153.359 -5.861 165.525 5.31975C169.648 9.10908 171.029 14.053 173.009 19.1352C178.909 34.288 183.996 49.8243 189.729 65.0529C190.134 66.1273 190.53 67.2418 190.604 68.4054L190.6 68.4098Z" fill="#CCC3AD"/>
</svg>
